<svg width="262" height="187" viewBox="0 0 262 187" fill="none" xmlns="http://www.w3.org/2000/svg">
<mask id="mask0" mask-type="alpha" maskUnits="userSpaceOnUse" x="0" y="0" width="262" height="187">
<rect width="262" height="187" fill="#C4C4C4"/>
</mask>
<g mask="url(#mask0)">
<path d="M176.5 133.5C121 173.245 11 160.544 -34.5 160.544L-42 209V-51.5211L113 -63L335 -32.556L321.5 77C291 65.5 255.886 76.6491 176.5 133.5Z" fill="#349EFF"/>
<path d="M82.9062 80.3125C80.4271 80.3125 78.4062 79.5521 76.8438 78.0312C75.2917 76.5104 74.5156 74.4844 74.5156 71.9531V71.5156C74.5156 69.8177 74.8438 68.3021 75.5 66.9688C76.1562 65.625 77.0833 64.5938 78.2812 63.875C79.4896 63.1458 80.8646 62.7812 82.4062 62.7812C84.7188 62.7812 86.5365 63.5104 87.8594 64.9688C89.1927 66.4271 89.8594 68.4948 89.8594 71.1719V73.0156H79.0938C79.2396 74.1198 79.6771 75.0052 80.4062 75.6719C81.1458 76.3385 82.0781 76.6719 83.2031 76.6719C84.9427 76.6719 86.3021 76.0417 87.2812 74.7812L89.5 77.2656C88.8229 78.224 87.9062 78.974 86.75 79.5156C85.5938 80.0469 84.3125 80.3125 82.9062 80.3125ZM82.3906 66.4375C81.4948 66.4375 80.7656 66.7396 80.2031 67.3438C79.651 67.9479 79.2969 68.8125 79.1406 69.9375H85.4219V69.5781C85.401 68.5781 85.1302 67.8073 84.6094 67.2656C84.0885 66.7135 83.349 66.4375 82.3906 66.4375ZM91.7344 71.4219C91.7344 68.7865 92.3229 66.6875 93.5 65.125C94.6875 63.5625 96.3073 62.7812 98.3594 62.7812C100.005 62.7812 101.365 63.3958 102.438 64.625V56H106.969V80H102.891L102.672 78.2031C101.547 79.6094 100.099 80.3125 98.3281 80.3125C96.3385 80.3125 94.7396 79.5312 93.5312 77.9688C92.3333 76.3958 91.7344 74.2135 91.7344 71.4219ZM96.25 71.75C96.25 73.3333 96.526 74.5469 97.0781 75.3906C97.6302 76.2344 98.4323 76.6562 99.4844 76.6562C100.88 76.6562 101.865 76.0677 102.438 74.8906V68.2188C101.875 67.0417 100.901 66.4531 99.5156 66.4531C97.3385 66.4531 96.25 68.2188 96.25 71.75ZM120.594 78.2812C119.479 79.6354 117.938 80.3125 115.969 80.3125C114.156 80.3125 112.771 79.7917 111.812 78.75C110.865 77.7083 110.38 76.1823 110.359 74.1719V63.0938H114.875V74.0156C114.875 75.776 115.677 76.6562 117.281 76.6562C118.812 76.6562 119.865 76.125 120.438 75.0625V63.0938H124.969V80H120.719L120.594 78.2812ZM135.406 76.6719C136.24 76.6719 136.917 76.4427 137.438 75.9844C137.958 75.526 138.229 74.9167 138.25 74.1562H142.484C142.474 75.3021 142.161 76.3542 141.547 77.3125C140.932 78.2604 140.089 79 139.016 79.5312C137.953 80.0521 136.776 80.3125 135.484 80.3125C133.068 80.3125 131.161 79.5469 129.766 78.0156C128.37 76.474 127.672 74.349 127.672 71.6406V71.3438C127.672 68.7396 128.365 66.6615 129.75 65.1094C131.135 63.5573 133.036 62.7812 135.453 62.7812C137.568 62.7812 139.26 63.3854 140.531 64.5938C141.812 65.7917 142.464 67.3906 142.484 69.3906H138.25C138.229 68.5156 137.958 67.8073 137.438 67.2656C136.917 66.7135 136.229 66.4375 135.375 66.4375C134.323 66.4375 133.526 66.8229 132.984 67.5938C132.453 68.3542 132.188 69.5938 132.188 71.3125V71.7812C132.188 73.5208 132.453 74.7708 132.984 75.5312C133.516 76.2917 134.323 76.6719 135.406 76.6719ZM154.859 80C154.651 79.5938 154.5 79.0885 154.406 78.4844C153.312 79.7031 151.891 80.3125 150.141 80.3125C148.484 80.3125 147.109 79.8333 146.016 78.875C144.932 77.9167 144.391 76.7083 144.391 75.25C144.391 73.4583 145.052 72.0833 146.375 71.125C147.708 70.1667 149.63 69.6823 152.141 69.6719H154.219V68.7031C154.219 67.9219 154.016 67.2969 153.609 66.8281C153.214 66.3594 152.583 66.125 151.719 66.125C150.958 66.125 150.359 66.3073 149.922 66.6719C149.495 67.0365 149.281 67.5365 149.281 68.1719H144.766C144.766 67.1927 145.068 66.2865 145.672 65.4531C146.276 64.6198 147.13 63.9688 148.234 63.5C149.339 63.0208 150.578 62.7812 151.953 62.7812C154.036 62.7812 155.688 63.3073 156.906 64.3594C158.135 65.401 158.75 66.8698 158.75 68.7656V76.0938C158.76 77.6979 158.984 78.9115 159.422 79.7344V80H154.859ZM151.125 76.8594C151.792 76.8594 152.406 76.7135 152.969 76.4219C153.531 76.1198 153.948 75.7188 154.219 75.2188V72.3125H152.531C150.271 72.3125 149.068 73.0938 148.922 74.6562L148.906 74.9219C148.906 75.4844 149.104 75.9479 149.5 76.3125C149.896 76.6771 150.438 76.8594 151.125 76.8594ZM167.625 58.9375V63.0938H170.516V66.4062H167.625V74.8438C167.625 75.4688 167.745 75.9167 167.984 76.1875C168.224 76.4583 168.682 76.5938 169.359 76.5938C169.859 76.5938 170.302 76.5573 170.688 76.4844V79.9062C169.802 80.1771 168.891 80.3125 167.953 80.3125C164.786 80.3125 163.172 78.7135 163.109 75.5156V66.4062H160.641V63.0938H163.109V58.9375H167.625ZM180.812 80.3125C178.333 80.3125 176.312 79.5521 174.75 78.0312C173.198 76.5104 172.422 74.4844 172.422 71.9531V71.5156C172.422 69.8177 172.75 68.3021 173.406 66.9688C174.062 65.625 174.99 64.5938 176.188 63.875C177.396 63.1458 178.771 62.7812 180.312 62.7812C182.625 62.7812 184.443 63.5104 185.766 64.9688C187.099 66.4271 187.766 68.4948 187.766 71.1719V73.0156H177C177.146 74.1198 177.583 75.0052 178.312 75.6719C179.052 76.3385 179.984 76.6719 181.109 76.6719C182.849 76.6719 184.208 76.0417 185.188 74.7812L187.406 77.2656C186.729 78.224 185.812 78.974 184.656 79.5156C183.5 80.0469 182.219 80.3125 180.812 80.3125ZM180.297 66.4375C179.401 66.4375 178.672 66.7396 178.109 67.3438C177.557 67.9479 177.203 68.8125 177.047 69.9375H183.328V69.5781C183.307 68.5781 183.036 67.8073 182.516 67.2656C181.995 66.7135 181.255 66.4375 180.297 66.4375Z" fill="white"/>
</g>
</svg>
